<?xml version="1.0" encoding="utf-8"?>
<?xml-stylesheet type="text/xsl" href="rss1.xsl"?>
<rss version="2.0" xmlns:atom="http://www.w3.org/2005/Atom" xmlns:content="http://purl.org/rss/1.0/modules/content/" xmlns:dc="http://purl.org/dc/elements/1.1/" xmlns:media="http://search.yahoo.com/mrss/">
<channel>
 <title>Getty</title>
 <link>http://www.gettyimg.com/</link>
 <atom:link href="http://www.gettyimg.com/" rel="self" type="application/rss+xml" />

 
                <item>
                <title><![CDATA[【Apple Music】WEB-RiP - Avril Lavigne - Hello Kitty (1080p)]]></title>
                <link><![CDATA[https://sharemania.us/threads/avril-lavigne-hello-kitty-1080p.239857/]]></link>
                <description><![CDATA[<article>
<blockquote class="messageText SelectQuoteContainer ugc baseHtml">
<img src="https://i.postimg.cc/0NjLGDNw/Avril-Lavigne-Hello-Kitty-mp4.jpg" class="bbCodeImage LbImage" alt="[​IMG]" data-url="https://i.postimg.cc/0NjLGDNw/Avril-Lavigne-Hello-Kitty-mp4.jpg" style=""><br>
<br>
<div class="bbCodeBlock bbCodeCode">
<div class="type">Code:</div>
<pre>General
Complete name                  : G:\Новая папка\Avril Lavigne - Hello Kitty.mp4
Format                         : MPEG-4
Format profile                 : Base Media
Codec ID                       : isom (isom/iso2/avc1/mp41)
File size                      : 159 MiB
Duration                       : 3 min 18 s
Overall bit rate               : 6 723 kb/s
Frame rate                     : 23.976 FPS
Movie name                     : Hello Kitty
Performer                      : Avril Lavigne
Genre                          : Pop
ContentType                    : Music Video
Recorded date                  : 2014-04-23 07:00:00 UTC
Writing application            : Lavf56.30.100
Copyright                      : ℗ (C) 2014 Epic Records, a division of Sony Music Entertainment

Video
ID                             : 1
Format                         : AVC
Format/Info                    : Advanced Video Codec
Format profile                 : High@L4
Format settings                : CABAC / 4 Ref Frames
Format settings, CABAC         : Yes
Format settings, Reference fra : 4 frames
Format settings, Slice count   : 8 slices per frame
Codec ID                       : avc1
Codec ID/Info                  : Advanced Video Coding
Duration                       : 3 min 18 s
Bit rate                       : 6 464 kb/s
Width                          : 1 920 pixels
Height                         : 1 080 pixels
Display aspect ratio           : 16:9
Frame rate mode                : Constant
Frame rate                     : 23.976 (23976/1000) FPS
Color space                    : YUV
Chroma subsampling             : 4:2:0
Bit depth                      : 8 bits
Scan type                      : Progressive
Bits/(Pixel*Frame)             : 0.130
Stream size                    : 153 MiB (96%)
Color range                    : Limited
Color primaries                : BT.709
Transfer characteristics       : BT.709
Matrix coefficients            : BT.709
Codec configuration box        : avcC

Audio
ID                             : 2
Format                         : AAC LC
Format/Info                    : Advanced Audio Codec Low Complexity
Codec ID                       : mp4a-40-2
Duration                       : 3 min 18 s
Duration_LastFrame             : -2 ms
Bit rate mode                  : Constant
Bit rate                       : 255 kb/s
Channel(s)                     : 2 channels
Channel layout                 : L R
Sampling rate                  : 48.0 kHz
Frame rate                     : 46.875 FPS (1024 SPF)
Compression mode               : Lossy
Stream size                    : 6.05 MiB (4%)
Default                        : Yes
Alternate group                : 1

</pre>
</div>
<div class="bbCodeBlock bbCodeVfcHH HiddenContent">
<div class="attribution type">Hidden Content:</div>
<blockquote>You must either reply or click 'Like' to see the hidden information contained here.</blockquote>
</div>
<div class="messageTextEndMarker">&nbsp;</div>
</blockquote>
</article>]]></description>
                <author><![CDATA[vitalya3]]></author>
                </item>

                
                <item>
                <title><![CDATA[【Apple Music】WEB-RiP - Astrid S - Someone New (1080p)]]></title>
                <link><![CDATA[https://sharemania.us/threads/astrid-s-someone-new-1080p.239858/]]></link>
                <description><![CDATA[<article>
<blockquote class="messageText SelectQuoteContainer ugc baseHtml">
<img src="https://i.postimg.cc/fWYT0nph/Astrid-S-Someone-New-mp4.jpg" class="bbCodeImage LbImage" alt="[​IMG]" data-url="https://i.postimg.cc/fWYT0nph/Astrid-S-Someone-New-mp4.jpg" style=""><br>
<br>
<div class="bbCodeBlock bbCodeCode">
<div class="type">Code:</div>
<pre>General
Complete name                  : G:\Новая папка\Astrid S - Someone New.mp4
Format                         : MPEG-4
Format profile                 : Base Media
Codec ID                       : isom (isom/iso2/avc1/mp41)
File size                      : 156 MiB
Duration                       : 3 min 17 s
Overall bit rate               : 6 621 kb/s
Frame rate                     : 25.000 FPS
Movie name                     : Someone New
Performer                      : Astrid S
Genre                          : Pop
ContentType                    : Music Video
Recorded date                  : 2019-02-12 08:00:00 UTC
Writing application            : Lavf56.30.100
Copyright                      : ℗ 2019 Universal Music A/S

Video
ID                             : 1
Format                         : AVC
Format/Info                    : Advanced Video Codec
Format profile                 : High@L4.1
Format settings                : CABAC / 5 Ref Frames
Format settings, CABAC         : Yes
Format settings, Reference fra : 5 frames
Format settings, Slice count   : 8 slices per frame
Codec ID                       : avc1
Codec ID/Info                  : Advanced Video Coding
Duration                       : 3 min 17 s
Bit rate                       : 6 358 kb/s
Width                          : 1 912 pixels
Height                         : 808 pixels
Display aspect ratio           : 2.35:1
Frame rate mode                : Constant
Frame rate                     : 25.000 FPS
Color space                    : YUV
Chroma subsampling             : 4:2:0
Bit depth                      : 8 bits
Scan type                      : Progressive
Bits/(Pixel*Frame)             : 0.165
Stream size                    : 149 MiB (96%)
Language                       : English
Color range                    : Limited
Color primaries                : BT.709
Transfer characteristics       : BT.709
Matrix coefficients            : BT.709
Codec configuration box        : avcC

Audio
ID                             : 2
Format                         : AAC LC
Format/Info                    : Advanced Audio Codec Low Complexity
Codec ID                       : mp4a-40-2
Duration                       : 3 min 17 s
Duration_LastFrame             : -4 ms
Bit rate mode                  : Constant
Bit rate                       : 258 kb/s
Channel(s)                     : 2 channels
Channel layout                 : L R
Sampling rate                  : 48.0 kHz
Frame rate                     : 46.875 FPS (1024 SPF)
Compression mode               : Lossy
Stream size                    : 6.08 MiB (4%)
Default                        : Yes
Alternate group                : 1

</pre>
</div>
<div class="bbCodeBlock bbCodeVfcHH HiddenContent">
<div class="attribution type">Hidden Content:</div>
<blockquote>You must either reply or click 'Like' to see the hidden information contained here.</blockquote>
</div>
<div class="messageTextEndMarker">&nbsp;</div>
</blockquote>
</article>]]></description>
                <author><![CDATA[vitalya3]]></author>
                </item>

                </channel></rss>